<svg width="540" height="353" viewBox="0 0 540 353" fill="none" xmlns="http://www.w3.org/2000/svg">
<path d="M463.709 692.992C499.191 665.772 524.736 626.867 534.7 584.772C542.844 550.365 548.057 515.895 546.593 482.094C544.162 425.831 520.159 370.956 472.617 347.869C436.999 330.571 391.354 332.118 359.6 309.054C330.458 287.864 318.417 249.652 312.609 212.026C306.769 174.38 305.62 134.837 292.316 100.284C263.677 25.9173 178.53 -11.7945 95.1766 3.4841C11.8233 18.7626 -66.2204 81.2203 -112.466 158.136C-158.712 235.052 -175.295 324.474 -169.472 407.245C-159.287 551.199 -79.9656 679.358 42.598 738.448C163.271 796.621 323.582 783.928 451.865 701.4C455.921 698.775 459.867 695.954 463.709 692.992Z" fill="#6478F9"/>
</svg>
