<svg width="574" height="860" viewBox="0 0 574 860" fill="none" xmlns="http://www.w3.org/2000/svg">
<path d="M463.708 925.992C499.191 898.772 524.736 859.867 534.7 817.772C542.843 783.365 548.057 748.895 546.593 715.094C544.161 658.831 520.159 603.956 472.617 580.869C436.998 563.571 391.354 565.118 359.6 542.053C330.458 520.864 318.417 482.652 312.608 445.026C306.768 407.38 305.62 367.837 292.316 333.283C263.677 258.917 178.529 221.205 95.1761 236.484C11.8228 251.763 -66.2209 314.22 -112.467 391.136C-158.713 468.051 -175.295 557.474 -169.473 640.245C-159.288 784.199 -79.9661 912.358 42.5976 971.448C163.271 1029.62 323.581 1016.93 451.865 934.4C455.921 931.775 459.866 928.954 463.708 925.992Z" fill="#6478F9"/>
<path d="M50.0672 3.00018L34 31.1179L66.1344 31.1179L50.0672 3.00018ZM50.0672 3.00018L34 31.1179L66.1344 31.1179L50.0672 3.00018Z" stroke="#AEC4EF" stroke-width="2" stroke-miterlimit="10"/>
<path d="M50.0672 42.2778L34 70.4153L66.1344 70.4153L50.0672 42.2778ZM50.0672 42.2778L34 70.4153L66.1344 70.4153" stroke="#AEC4EF" stroke-width="2" stroke-miterlimit="10"/>
<path d="M50.0672 81.5556L34 109.693L66.1344 109.693L50.0672 81.5556ZM50.0672 81.5556L34 109.693L66.1344 109.693L50.0672 81.5556Z" stroke="#AEC4EF" stroke-width="2" stroke-miterlimit="10"/>
<path d="M495.02 149L485 166.547L505.027 166.547L495.02 149L485 166.547L505.027 166.547L495.02 149Z" fill="#7E90FF"/>
<path d="M495.02 198L485 215.547L505.027 215.547L495.02 198L485 215.547L505.027 215.547L495.02 198Z" fill="#7E90FF"/>
<path d="M495.02 174.321L485 191.868L505.027 191.868L495.02 174.321L485 191.868L505.027 191.868L495.02 174.321Z" fill="#7E90FF"/>
</svg>
